<svg width="30" height="32" viewBox="0 0 30 32" fill="none" xmlns="http://www.w3.org/2000/svg">
<g opacity="0.7">
<path d="M23.0178 12.9731C23.0178 10.5911 22.1448 8.30665 20.5908 6.62231C19.0368 4.93797 16.9291 3.99172 14.7314 3.99172C12.5337 3.99172 10.426 4.93797 8.87199 6.62231C7.31798 8.30665 6.44495 10.5911 6.44495 12.9731C6.44495 16.6575 9.16474 21.4596 14.7314 27.2116C20.298 21.4596 23.0178 16.6575 23.0178 12.9731ZM14.7314 29.938C7.97886 23.2858 4.60352 17.6295 4.60352 12.9731C4.60352 10.0618 5.67056 7.26966 7.5699 5.21102C9.46925 3.15238 12.0453 1.99585 14.7314 1.99585C17.4175 1.99585 19.9935 3.15238 21.8929 5.21102C23.7922 7.26966 24.8593 10.0618 24.8593 12.9731C24.8593 17.6295 21.4839 23.2858 14.7314 29.938Z" fill="white"/>
<path d="M14.7315 15.9669C15.4641 15.9669 16.1666 15.6515 16.6846 15.0901C17.2026 14.5286 17.4937 13.7671 17.4937 12.9731C17.4937 12.1791 17.2026 11.4176 16.6846 10.8562C16.1666 10.2947 15.4641 9.97933 14.7315 9.97933C13.9989 9.97933 13.2964 10.2947 12.7784 10.8562C12.2604 11.4176 11.9694 12.1791 11.9694 12.9731C11.9694 13.7671 12.2604 14.5286 12.7784 15.0901C13.2964 15.6515 13.9989 15.9669 14.7315 15.9669ZM14.7315 17.9628C13.5106 17.9628 12.3396 17.4371 11.4763 16.5014C10.6129 15.5656 10.1279 14.2965 10.1279 12.9731C10.1279 11.6498 10.6129 10.3806 11.4763 9.4449C12.3396 8.50916 13.5106 7.98346 14.7315 7.98346C15.9525 7.98346 17.1234 8.50916 17.9867 9.4449C18.8501 10.3806 19.3351 11.6498 19.3351 12.9731C19.3351 14.2965 18.8501 15.5656 17.9867 16.5014C17.1234 17.4371 15.9525 17.9628 14.7315 17.9628Z" fill="white"/>
</g>
</svg>
