<svg width="34" height="48" viewBox="0 0 34 48" fill="none" xmlns="http://www.w3.org/2000/svg">
<path d="M29.781 5.664H22.83C21.574 5.668 21.621 7.54 22.83 7.529H29.781V8.486H22.83C21.581 8.475 21.627 10.346 22.83 10.351H29.781V11.329H22.83C21.581 11.329 21.627 13.199 22.83 13.194H29.781V14.126H22.83C21.607 14.135 21.627 16.007 22.83 16.013H29.781V16.947H22.83C21.607 16.943 21.602 18.812 22.83 18.812H29.781V19.744H22.83C21.607 19.748 21.602 21.619 22.83 21.61H29.781V22.565H22.83C21.607 22.554 21.602 24.423 22.83 24.43H29.781V25.36H22.83C21.607 25.359 21.627 27.232 22.83 27.226H29.781V45.385C29.785 48.152 33.988 48.102 34 45.385V2.89C33.988 1.626 32.95 0.028 31.242 0.023H22.83C21.574 0.024 21.621 1.896 22.83 1.888L29.781 1.911V2.841H22.83C21.576 2.835 21.623 4.706 22.83 4.707H29.781V5.664ZM22.352 37.858C22.348 34.628 19 31.154 15 33.404V21.05L12.413 0.675C12.359 0.136 11.902 0.009 11.595 0C11.278 0.009 10.643 0.136 10.574 0.675L8 21.05V33.404C4 31.154 0.760003 34.65 0.759003 37.833C0.760003 40.665 2.94 42.991 5.89 42.984C8.862 42.991 11 40.384 11 37.833V25H12V37.833C12 40.689 14.212 42.803 16.67 42.937C16.629 44.503 17.14 46.737 18.102 47.623C19.23 48.663 20.573 47.333 20.022 46.25C19.49 45.242 18.968 44.645 19.392 42.444C21.164 41.624 22.348 39.898 22.352 37.858ZM6.004 40.399C5.32969 40.399 4.68299 40.1311 4.20618 39.6543C3.72937 39.1775 3.4615 38.5308 3.4615 37.8565C3.4615 37.1822 3.72937 36.5355 4.20618 36.0587C4.68299 35.5819 5.32969 35.314 6.004 35.314C7.39 35.322 8.519 36.459 8.529 37.858C8.52615 38.5283 8.25971 39.1705 7.78725 39.646C7.31479 40.1214 6.67424 40.3919 6.004 40.399ZM14.575 37.858C14.5773 37.1871 14.8436 36.5441 15.3163 36.068C15.7891 35.592 16.4301 35.3211 17.101 35.314C17.7721 35.3201 18.4137 35.5906 18.8865 36.067C19.3592 36.5433 19.625 37.1869 19.626 37.858C19.625 38.5288 19.3591 39.1721 18.8863 39.648C18.4134 40.1238 17.7718 40.3937 17.101 40.399C16.4303 40.3929 15.7891 40.1228 15.3162 39.6472C14.8434 39.1715 14.5771 38.5287 14.575 37.858Z" fill="#26334D"/>
</svg>
