<svg width="16" height="17" viewBox="0 0 16 17" fill="none" xmlns="http://www.w3.org/2000/svg">
<path d="M8 0.25C8.68613 0.249903 9.34752 0.506305 9.85429 0.96886C10.3611 1.43142 10.6766 2.06671 10.739 2.75H15C15.19 2.75006 15.3729 2.82224 15.5118 2.95197C15.6506 3.0817 15.7351 3.2593 15.748 3.44888C15.761 3.63846 15.7015 3.82589 15.5816 3.9733C15.4617 4.12071 15.2902 4.2171 15.102 4.243L15 4.25H14.417L13.15 15.23C13.0936 15.7174 12.86 16.167 12.4936 16.4934C12.1272 16.8198 11.6537 17.0001 11.163 17H4.837C4.34635 17.0001 3.87279 16.8198 3.50642 16.4934C3.14005 16.167 2.90642 15.7174 2.85 15.23L1.582 4.25H1C0.818762 4.24999 0.643658 4.18436 0.507069 4.06523C0.370481 3.94611 0.281648 3.78155 0.257 3.602L0.25 3.5C0.250008 3.31876 0.315643 3.14366 0.434767 3.00707C0.553891 2.87048 0.718446 2.78165 0.898 2.757L1 2.75H5.261C5.32338 2.06671 5.63893 1.43142 6.14571 0.96886C6.65248 0.506305 7.31387 0.249903 8 0.25ZM6.5 6.5C6.255 6.5 6.05 6.655 6.008 6.859L6 6.938V13.063L6.008 13.141C6.05 13.345 6.255 13.5 6.5 13.5C6.745 13.5 6.95 13.345 6.992 13.141L7 13.062V6.939L6.992 6.859C6.95 6.656 6.745 6.5 6.5 6.5ZM9.5 6.5C9.255 6.5 9.05 6.655 9.008 6.859L9 6.938V13.063L9.008 13.141C9.05 13.345 9.255 13.5 9.5 13.5C9.745 13.5 9.95 13.345 9.992 13.141L10 13.062V6.939L9.992 6.859C9.95 6.656 9.745 6.5 9.5 6.5ZM8 1.75C7.395 1.75 6.89 2.18 6.775 2.75H9.225C9.109 2.18 8.605 1.75 8 1.75Z" fill="#CC2F2F"/>
</svg>
