<svg width="32" height="32" viewBox="0 0 32 32" fill="none" xmlns="http://www.w3.org/2000/svg">
<rect width="32" height="32" rx="16" fill="white"/>
<path d="M18 16C18 16.5304 17.7893 17.0391 17.4142 17.4142C17.0391 17.7893 16.5304 18 16 18C15.4696 18 14.9609 17.7893 14.5858 17.4142C14.2107 17.0391 14 16.5304 14 16C14 15.4696 14.2107 14.9609 14.5858 14.5858C14.9609 14.2107 15.4696 14 16 14C16.5304 14 17.0391 14.2107 17.4142 14.5858C17.7893 14.9609 18 15.4696 18 16Z" fill="#484A9E"/>
<path d="M10.75 11.8333C10.2859 11.8333 9.84075 12.0265 9.51256 12.3703C9.18437 12.7141 9 13.1804 9 13.6667V19.1667C9 19.6529 9.18437 20.1192 9.51256 20.463C9.84075 20.8068 10.2859 21 10.75 21H21.25C21.7141 21 22.1592 20.8068 22.4874 20.463C22.8156 20.1192 23 19.6529 23 19.1667V13.6667C23 13.1804 22.8156 12.7141 22.4874 12.3703C22.1592 12.0265 21.7141 11.8333 21.25 11.8333H20.2245C19.7604 11.8332 19.3154 11.64 18.9872 11.2962L18.2628 10.5372C17.9346 10.1933 17.4896 10.0001 17.0255 10H14.9745C14.5104 10.0001 14.0654 10.1933 13.7372 10.5372L13.0128 11.2962C12.6846 11.64 12.2396 11.8332 11.7755 11.8333H10.75ZM11.1875 13.6667C11.0715 13.6667 10.9602 13.6184 10.8781 13.5324C10.7961 13.4465 10.75 13.3299 10.75 13.2083C10.75 13.0868 10.7961 12.9702 10.8781 12.8842C10.9602 12.7983 11.0715 12.75 11.1875 12.75C11.3035 12.75 11.4148 12.7983 11.4969 12.8842C11.5789 12.9702 11.625 13.0868 11.625 13.2083C11.625 13.3299 11.5789 13.4465 11.4969 13.5324C11.4148 13.6184 11.3035 13.6667 11.1875 13.6667ZM19.0625 15.9583C19.0625 16.8092 18.7398 17.6253 18.1655 18.227C17.5912 18.8286 16.8122 19.1667 16 19.1667C15.1878 19.1667 14.4088 18.8286 13.8345 18.227C13.2602 17.6253 12.9375 16.8092 12.9375 15.9583C12.9375 15.1074 13.2602 14.2914 13.8345 13.6897C14.4088 13.088 15.1878 12.75 16 12.75C16.8122 12.75 17.5912 13.088 18.1655 13.6897C18.7398 14.2914 19.0625 15.1074 19.0625 15.9583Z" fill="#484A9E"/>
</svg>
