<svg width="32" height="33" viewBox="0 0 32 33" fill="none" xmlns="http://www.w3.org/2000/svg">
<path d="M21.8582 7.43054V5.50654C21.8582 5.00088 21.4389 4.58154 20.9332 4.58154C20.4275 4.58154 20.0082 5.00088 20.0082 5.50654V7.35654H11.9915V5.50654C11.9915 5.00088 11.5722 4.58154 11.0665 4.58154C10.5609 4.58154 10.1415 5.00088 10.1415 5.50654V7.43054C6.81153 7.73887 5.19586 9.72454 4.94919 12.6722C4.92453 13.0299 5.22053 13.3259 5.56586 13.3259H26.4339C26.7915 13.3259 27.0875 13.0175 27.0505 12.6722C26.8039 9.72454 25.1882 7.73887 21.8582 7.43054Z" fill="url(#paint0_linear_28_555)"/>
<path opacity="0.4" d="M25.8666 14.251C26.5449 14.251 27.0999 14.806 27.0999 15.4843V23.0816C27.0999 26.7816 25.2499 29.2483 20.9332 29.2483H11.0666C6.7499 29.2483 4.8999 26.7816 4.8999 23.0816V15.4843C4.8999 14.806 5.4549 14.251 6.13324 14.251H25.8666Z" fill="url(#paint1_linear_28_555)"/>
<path d="M11.6833 20.615C11.3626 20.615 11.042 20.4793 10.8076 20.2573C10.5856 20.023 10.45 19.7023 10.45 19.3816C10.45 19.061 10.5856 18.7403 10.8076 18.506C11.153 18.1606 11.6956 18.0496 12.152 18.2469C12.3123 18.3086 12.448 18.395 12.559 18.506C12.781 18.7403 12.9166 19.061 12.9166 19.3816C12.9166 19.7023 12.781 20.023 12.559 20.2573C12.3246 20.4793 12.004 20.615 11.6833 20.615Z" fill="url(#paint2_linear_28_555)"/>
<path d="M15.9999 20.615C15.6793 20.615 15.3586 20.4793 15.1243 20.2573C14.9023 20.023 14.7666 19.7023 14.7666 19.3816C14.7666 19.061 14.9023 18.7403 15.1243 18.506C15.2353 18.395 15.3709 18.3086 15.5313 18.2469C15.9876 18.0496 16.5303 18.1606 16.8756 18.506C17.0976 18.7403 17.2333 19.061 17.2333 19.3816C17.2333 19.7023 17.0976 20.023 16.8756 20.2573C16.8139 20.3066 16.7523 20.3559 16.6906 20.4053C16.6166 20.4546 16.5426 20.4916 16.4686 20.5163C16.3946 20.5533 16.3206 20.578 16.2466 20.5903C16.1603 20.6026 16.0863 20.615 15.9999 20.615Z" fill="url(#paint3_linear_28_555)"/>
<path d="M20.3166 20.6149C19.9959 20.6149 19.6753 20.4792 19.4409 20.2572C19.2189 20.0229 19.0833 19.7022 19.0833 19.3815C19.0833 19.0609 19.2189 18.7402 19.4409 18.5059C19.5643 18.3949 19.6876 18.3085 19.8479 18.2469C20.0699 18.1482 20.3166 18.1235 20.5633 18.1729C20.6373 18.1852 20.7113 18.2099 20.7853 18.2469C20.8593 18.2715 20.9333 18.3086 21.0073 18.3579C21.0689 18.4072 21.1306 18.4566 21.1923 18.5059C21.4143 18.7402 21.5499 19.0609 21.5499 19.3815C21.5499 19.7022 21.4143 20.0229 21.1923 20.2572C21.1306 20.3065 21.0689 20.3559 21.0073 20.4052C20.9333 20.4545 20.8593 20.4916 20.7853 20.5162C20.7113 20.5532 20.6373 20.5779 20.5633 20.5902C20.4769 20.6026 20.3906 20.6149 20.3166 20.6149Z" fill="url(#paint4_linear_28_555)"/>
<path d="M11.6833 24.9315C11.523 24.9315 11.3626 24.8945 11.2146 24.8329C11.0543 24.7712 10.931 24.6848 10.8076 24.5738C10.5856 24.3395 10.45 24.0189 10.45 23.6982C10.45 23.3775 10.5856 23.0569 10.8076 22.8225C10.931 22.7115 11.0543 22.6252 11.2146 22.5635C11.4366 22.4648 11.6833 22.4402 11.93 22.4895C12.004 22.5018 12.078 22.5265 12.152 22.5635C12.226 22.5882 12.3 22.6252 12.374 22.6745C12.4356 22.7239 12.4973 22.7732 12.559 22.8225C12.781 23.0569 12.9166 23.3775 12.9166 23.6982C12.9166 24.0189 12.781 24.3395 12.559 24.5738C12.4973 24.6232 12.4356 24.6848 12.374 24.7218C12.3 24.7712 12.226 24.8082 12.152 24.8329C12.078 24.8699 12.004 24.8945 11.93 24.9069C11.8436 24.9192 11.7696 24.9315 11.6833 24.9315Z" fill="url(#paint5_linear_28_555)"/>
<path d="M15.9999 24.9317C15.6793 24.9317 15.3586 24.796 15.1243 24.574C14.9023 24.3397 14.7666 24.019 14.7666 23.6984C14.7666 23.3777 14.9023 23.0571 15.1243 22.8227C15.5806 22.3664 16.4193 22.3664 16.8756 22.8227C17.0976 23.0571 17.2333 23.3777 17.2333 23.6984C17.2333 24.019 17.0976 24.3397 16.8756 24.574C16.6413 24.796 16.3206 24.9317 15.9999 24.9317Z" fill="url(#paint6_linear_28_555)"/>
<path d="M20.3166 24.9317C19.9959 24.9317 19.6753 24.796 19.4409 24.574C19.2189 24.3397 19.0833 24.019 19.0833 23.6984C19.0833 23.3777 19.2189 23.0571 19.4409 22.8227C19.8973 22.3664 20.7359 22.3664 21.1923 22.8227C21.4143 23.0571 21.5499 23.3777 21.5499 23.6984C21.5499 24.019 21.4143 24.3397 21.1923 24.574C20.9579 24.796 20.6373 24.9317 20.3166 24.9317Z" fill="url(#paint7_linear_28_555)"/>
<defs>
<linearGradient id="paint0_linear_28_555" x1="4.94775" y1="8.95371" x2="27.0537" y2="8.95371" gradientUnits="userSpaceOnUse">
<stop stop-color="#C84E89"/>
<stop offset="1" stop-color="#F15F79"/>
</linearGradient>
<linearGradient id="paint1_linear_28_555" x1="4.8999" y1="21.7496" x2="27.0999" y2="21.7496" gradientUnits="userSpaceOnUse">
<stop stop-color="#C84E89"/>
<stop offset="1" stop-color="#F15F79"/>
</linearGradient>
<linearGradient id="paint2_linear_28_555" x1="10.45" y1="19.3823" x2="12.9166" y2="19.3823" gradientUnits="userSpaceOnUse">
<stop stop-color="#C84E89"/>
<stop offset="1" stop-color="#F15F79"/>
</linearGradient>
<linearGradient id="paint3_linear_28_555" x1="14.7666" y1="19.3823" x2="17.2333" y2="19.3823" gradientUnits="userSpaceOnUse">
<stop stop-color="#C84E89"/>
<stop offset="1" stop-color="#F15F79"/>
</linearGradient>
<linearGradient id="paint4_linear_28_555" x1="19.0833" y1="19.3815" x2="21.5499" y2="19.3815" gradientUnits="userSpaceOnUse">
<stop stop-color="#C84E89"/>
<stop offset="1" stop-color="#F15F79"/>
</linearGradient>
<linearGradient id="paint5_linear_28_555" x1="10.45" y1="23.6982" x2="12.9166" y2="23.6982" gradientUnits="userSpaceOnUse">
<stop stop-color="#C84E89"/>
<stop offset="1" stop-color="#F15F79"/>
</linearGradient>
<linearGradient id="paint6_linear_28_555" x1="14.7666" y1="23.7061" x2="17.2333" y2="23.7061" gradientUnits="userSpaceOnUse">
<stop stop-color="#C84E89"/>
<stop offset="1" stop-color="#F15F79"/>
</linearGradient>
<linearGradient id="paint7_linear_28_555" x1="19.0833" y1="23.7061" x2="21.5499" y2="23.7061" gradientUnits="userSpaceOnUse">
<stop stop-color="#C84E89"/>
<stop offset="1" stop-color="#F15F79"/>
</linearGradient>
</defs>
</svg>
