<svg width="24" height="25" viewBox="0 0 24 25" fill="none" xmlns="http://www.w3.org/2000/svg">
<path d="M7.24 2.58154H5.34C3.15 2.58154 2 3.73154 2 5.91154V7.81154C2 9.99154 3.15 11.1415 5.33 11.1415H7.23C9.41 11.1415 10.56 9.99154 10.56 7.81154V5.91154C10.57 3.73154 9.42 2.58154 7.24 2.58154Z" fill="url(#paint0_linear_28_582)"/>
<path opacity="0.4" d="M18.6699 2.58154H16.7699C14.5899 2.58154 13.4399 3.73154 13.4399 5.91154V7.81154C13.4399 9.99154 14.5899 11.1415 16.7699 11.1415H18.6699C20.8499 11.1415 21.9999 9.99154 21.9999 7.81154V5.91154C21.9999 3.73154 20.8499 2.58154 18.6699 2.58154Z" fill="url(#paint1_linear_28_582)"/>
<path d="M18.6699 14.0115H16.7699C14.5899 14.0115 13.4399 15.1615 13.4399 17.3415V19.2415C13.4399 21.4215 14.5899 22.5715 16.7699 22.5715H18.6699C20.8499 22.5715 21.9999 21.4215 21.9999 19.2415V17.3415C21.9999 15.1615 20.8499 14.0115 18.6699 14.0115Z" fill="url(#paint2_linear_28_582)"/>
<path opacity="0.4" d="M7.24 14.0115H5.34C3.15 14.0115 2 15.1615 2 17.3415V19.2415C2 21.4315 3.15 22.5815 5.33 22.5815H7.23C9.41 22.5815 10.56 21.4315 10.56 19.2515V17.3515C10.57 15.1615 9.42 14.0115 7.24 14.0115Z" fill="url(#paint3_linear_28_582)"/>
<defs>
<linearGradient id="paint0_linear_28_582" x1="2" y1="6.86154" x2="10.5601" y2="6.86154" gradientUnits="userSpaceOnUse">
<stop stop-color="#C84E89"/>
<stop offset="1" stop-color="#F15F79"/>
</linearGradient>
<linearGradient id="paint1_linear_28_582" x1="13.4399" y1="6.86154" x2="21.9999" y2="6.86154" gradientUnits="userSpaceOnUse">
<stop stop-color="#C84E89"/>
<stop offset="1" stop-color="#F15F79"/>
</linearGradient>
<linearGradient id="paint2_linear_28_582" x1="13.4399" y1="18.2915" x2="21.9999" y2="18.2915" gradientUnits="userSpaceOnUse">
<stop stop-color="#C84E89"/>
<stop offset="1" stop-color="#F15F79"/>
</linearGradient>
<linearGradient id="paint3_linear_28_582" x1="2" y1="18.2965" x2="10.5601" y2="18.2965" gradientUnits="userSpaceOnUse">
<stop stop-color="#C84E89"/>
<stop offset="1" stop-color="#F15F79"/>
</linearGradient>
</defs>
</svg>
