<svg width="32" height="32" viewBox="0 0 32 32" fill="none" xmlns="http://www.w3.org/2000/svg">
<path opacity="0.4" d="M20.3333 15.9735L29.9333 8.80012C30.3733 8.46679 30.4666 7.84012 30.1333 7.40012C29.7999 6.96012 29.1732 6.86679 28.7332 7.20012L18.6666 14.7335L11.2666 9.20012C10.8266 8.86679 10.1999 8.96012 9.86659 9.40012C9.53325 9.84012 9.62658 10.4668 10.0666 10.8001L16.9999 15.9868L9.13327 21.8801C8.69327 22.2135 8.59994 22.8401 8.93328 23.2801C9.13328 23.5468 9.42658 23.6801 9.73324 23.6801C9.94658 23.6801 10.1466 23.6135 10.3333 23.4801L18.6799 17.2401L28.7466 24.7735C28.9199 24.9068 29.1333 24.9735 29.3466 24.9735C29.6533 24.9735 29.9466 24.8401 30.1466 24.5735C30.4799 24.1335 30.3866 23.5068 29.9466 23.1735L20.3333 15.9735Z" fill="url(#paint0_linear_39_851)"/>
<path d="M7.33341 13.3333C9.91074 13.3333 12.0001 11.244 12.0001 8.66667C12.0001 6.08934 9.91074 4 7.33341 4C4.75609 4 2.66675 6.08934 2.66675 8.66667C2.66675 11.244 4.75609 13.3333 7.33341 13.3333Z" fill="url(#paint1_linear_39_851)"/>
<path d="M7.33341 28.0001C9.91074 28.0001 12.0001 25.9107 12.0001 23.3334C12.0001 20.7561 9.91074 18.6667 7.33341 18.6667C4.75609 18.6667 2.66675 20.7561 2.66675 23.3334C2.66675 25.9107 4.75609 28.0001 7.33341 28.0001Z" fill="url(#paint2_linear_39_851)"/>
<defs>
<linearGradient id="paint0_linear_39_851" x1="8.73291" y1="15.9866" x2="30.3469" y2="15.9866" gradientUnits="userSpaceOnUse">
<stop stop-color="#02AAB0"/>
<stop offset="1" stop-color="#00CDAC"/>
</linearGradient>
<linearGradient id="paint1_linear_39_851" x1="2.66675" y1="8.66667" x2="12.0001" y2="8.66667" gradientUnits="userSpaceOnUse">
<stop stop-color="#02AAB0"/>
<stop offset="1" stop-color="#00CDAC"/>
</linearGradient>
<linearGradient id="paint2_linear_39_851" x1="2.66675" y1="23.3334" x2="12.0001" y2="23.3334" gradientUnits="userSpaceOnUse">
<stop stop-color="#02AAB0"/>
<stop offset="1" stop-color="#00CDAC"/>
</linearGradient>
</defs>
</svg>
