<svg width="32" height="33" viewBox="0 0 32 33" fill="none" xmlns="http://www.w3.org/2000/svg">
<path opacity="0.4" d="M26.6875 19.807C26.4627 19.462 26.1432 19.117 25.729 18.8985C25.3977 18.7375 25.1847 18.473 24.9954 18.1625C24.3919 17.1735 24.7469 15.874 25.7527 15.2875C26.936 14.632 27.3147 13.1715 26.6284 12.033L25.8355 10.676C25.161 9.53754 23.6819 9.13504 22.5104 9.80204C21.4691 10.354 20.1319 9.98604 19.5284 9.00854C19.3391 8.68654 19.2326 8.34154 19.2563 7.99654C19.2918 7.54804 19.1498 7.12254 18.9368 6.77754C18.499 6.06454 17.7061 5.58154 16.8305 5.58154H15.162C14.2982 5.60454 13.5053 6.06454 13.0675 6.77754C12.8427 7.12254 12.7125 7.54804 12.7362 7.99654C12.7599 8.34154 12.6534 8.68654 12.464 9.00854C11.8605 9.98604 10.5234 10.354 9.49389 9.80204C8.31057 9.13504 6.84326 9.53754 6.15693 10.676L5.36411 12.033C4.68962 13.1715 5.06828 14.632 6.23977 15.2875C7.24559 15.874 7.60058 17.1735 7.00892 18.1625C6.80776 18.473 6.59476 18.7375 6.26343 18.8985C5.8611 19.117 5.50611 19.462 5.31678 19.807C4.87895 20.52 4.90262 21.417 5.34044 22.1645L6.15693 23.5445C6.59476 24.2805 7.41125 24.7405 8.26324 24.7405C8.66557 24.7405 9.1389 24.6255 9.51756 24.3955C9.81339 24.2 10.1684 24.131 10.5589 24.131C11.7304 24.131 12.7125 25.0855 12.7362 26.224C12.7362 27.5465 13.8248 28.5815 15.1975 28.5815H16.8068C18.1676 28.5815 19.2563 27.5465 19.2563 26.224C19.2918 25.0855 20.2739 24.131 21.4454 24.131C21.8241 24.131 22.1791 24.2 22.4867 24.3955C22.8654 24.6255 23.3269 24.7405 23.7411 24.7405C24.5812 24.7405 25.3977 24.2805 25.8355 23.5445L26.6639 22.1645C27.0898 21.394 27.1253 20.52 26.6875 19.807Z" fill="url(#paint0_linear_28_574)"/>
<path d="M16.0975 20.5499C14.2256 20.5499 12.7114 19.0916 12.7114 17.2599C12.7114 15.4283 14.2256 13.9583 16.0975 13.9583C17.9694 13.9583 19.4478 15.4283 19.4478 17.2599C19.4478 19.0916 17.9694 20.5499 16.0975 20.5499Z" fill="url(#paint1_linear_28_574)"/>
<defs>
<linearGradient id="paint0_linear_28_574" x1="5" y1="17.0815" x2="27" y2="17.0815" gradientUnits="userSpaceOnUse">
<stop stop-color="#0052D4"/>
<stop offset="0.5" stop-color="#4364F7"/>
<stop offset="1" stop-color="#6FB1FC"/>
</linearGradient>
<linearGradient id="paint1_linear_28_574" x1="12.7114" y1="17.2541" x2="19.4478" y2="17.2541" gradientUnits="userSpaceOnUse">
<stop stop-color="#0052D4"/>
<stop offset="0.5" stop-color="#4364F7"/>
<stop offset="1" stop-color="#6FB1FC"/>
</linearGradient>
</defs>
</svg>
