<svg width="14" height="14" viewBox="0 0 14 14" fill="none" xmlns="http://www.w3.org/2000/svg">
<path fill-rule="evenodd" clip-rule="evenodd" d="M10.0338 0C12.4061 0 14 1.6646 14 4.1412V9.8588C14 12.3354 12.4061 14 10.0331 14H3.9655C1.5932 14 0 12.3354 0 9.8588V4.1412C0 1.6646 1.5932 0 3.9655 0H10.0338ZM10.0338 1.05H3.9655C2.1945 1.05 1.05 2.2631 1.05 4.1412V9.8588C1.05 11.7369 2.1945 12.95 3.9655 12.95H10.0331C11.8048 12.95 12.95 11.7369 12.95 9.8588V4.1412C12.95 2.2631 11.8048 1.05 10.0338 1.05ZM9.86265 4.9679C10.0677 5.173 10.0677 5.5048 9.86265 5.7099L6.54045 9.0321C6.43825 9.135 6.30385 9.1861 6.16945 9.1861C6.03575 9.1861 5.90065 9.135 5.79845 9.0321L4.13665 7.371C3.93155 7.1659 3.93155 6.8341 4.13665 6.629C4.34175 6.4239 4.67355 6.4239 4.87865 6.629L6.16945 7.9184L9.12065 4.9679C9.32575 4.7628 9.65755 4.7628 9.86265 4.9679Z" fill="#22B04A"/>
</svg>
