<svg width="14" height="14" viewBox="0 0 14 14" fill="none" xmlns="http://www.w3.org/2000/svg">
<path fill-rule="evenodd" clip-rule="evenodd" d="M10.0338 0C12.4061 0 14 1.6646 14 4.1412V9.8588C14 12.3354 12.4061 14 10.0324 14H3.9648C1.5932 14 0 12.3354 0 9.8588V4.1412C0 1.6646 1.5932 0 3.9648 0H10.0338ZM10.0338 1.05H3.9648C2.1945 1.05 1.05 2.2631 1.05 4.1412V9.8588C1.05 11.7369 2.1945 12.95 3.9648 12.95H10.0324C11.8048 12.95 12.95 11.7369 12.95 9.8588V4.1412C12.95 2.2631 11.8048 1.05 10.0338 1.05ZM6.9958 6.475C7.2856 6.475 7.5208 6.7102 7.5208 7V9.8C7.5208 10.0898 7.2856 10.325 6.9958 10.325C6.706 10.325 6.4708 10.0898 6.4708 9.8V7C6.4708 6.7102 6.706 6.475 6.9958 6.475ZM6.99923 3.64287C7.38633 3.64287 7.69923 3.95577 7.69923 4.34287C7.69923 4.72997 7.38633 5.04287 6.99923 5.04287C6.61213 5.04287 6.29573 4.72997 6.29573 4.34287C6.29573 3.95577 6.60583 3.64287 6.99223 3.64287H6.99923Z" fill="#B00020"/>
</svg>
