<svg id="Layer_1" data-name="Layer 1" xmlns="http://www.w3.org/2000/svg" viewBox="0 0 771.85 221.69"><defs><style>.cls-1{fill:#331f8b;}.cls-2{fill:#3d469d;}.cls-3{fill:#566fb2;}.cls-4{fill:#96b6d7;}.cls-5{fill:#b5d8e9;}.cls-6{fill:#fff;}.cls-7{fill:#333;}</style></defs><path class="cls-1" d="M30.24,61.7v9a3.59,3.59,0,0,1-.46,1.77,3.55,3.55,0,0,1-1.4,1.45L20.6,78.39a3.71,3.71,0,0,1-3.73,0l-4.58-2.65h0L9.1,73.9a3.71,3.71,0,0,1-1.86-3.22v-9A3.78,3.78,0,0,1,9.1,58.47l.42-.24,4.39-2.54,3-1.71a3.76,3.76,0,0,1,3.73,0l3,1.71,4.82,2.78A3.74,3.74,0,0,1,30.24,61.7Z"/><path class="cls-1" d="M192.67,55.42V166.27l-96,55.42-96-55.42h0V76.56s0,0,0,0a5.31,5.31,0,0,0,1.94,1.94l13.48,7.79a5.32,5.32,0,0,0,2.7.71,5.19,5.19,0,0,0,2.55-.71l13.49-7.79a5.23,5.23,0,0,0,2-2A5.16,5.16,0,0,0,37.48,74V58.4a5.29,5.29,0,0,0-2.63-4.55L21.36,46.07A5.27,5.27,0,0,0,18,45.41L96.68,0Z"/><path class="cls-2" d="M30.24,61.7v9a3.59,3.59,0,0,1-.46,1.77,3.55,3.55,0,0,1-1.4,1.45L20.6,78.39a3.71,3.71,0,0,1-3.73,0l-4.58-2.65h0L9.1,73.9a3.71,3.71,0,0,1-1.86-3.22v-9A3.78,3.78,0,0,1,9.1,58.47l.42-.24,4.39-2.54h9.65l4.82,2.78A3.74,3.74,0,0,1,30.24,61.7Z"/><path class="cls-2" d="M192.68,55.69V166.27h0l-96,55.42-96-55.42h0V76.56s0,0,0,0a5.31,5.31,0,0,0,1.94,1.94l13.48,7.79a5.32,5.32,0,0,0,2.7.71,5.19,5.19,0,0,0,2.55-.71l13.49-7.79a5.23,5.23,0,0,0,2-2A5.16,5.16,0,0,0,37.48,74V58.4a5.2,5.2,0,0,0-.76-2.71Z"/><path class="cls-3" d="M30.24,64.18v6.5a3.59,3.59,0,0,1-.46,1.77,3.55,3.55,0,0,1-1.4,1.45L20.6,78.39a3.71,3.71,0,0,1-3.73,0l-4.58-2.65h0L9.1,73.9a3.71,3.71,0,0,1-1.86-3.22v-9A3.78,3.78,0,0,1,9.1,58.47l.42-.24Z"/><path class="cls-3" d="M192.68,110.84v55.43h0l-96,55.42-96-55.42h0V76.56s0,0,0,0a5.31,5.31,0,0,0,1.94,1.94l13.48,7.79a5.32,5.32,0,0,0,2.7.71,5.19,5.19,0,0,0,2.55-.71l13.49-7.79a5.23,5.23,0,0,0,2-2A5.16,5.16,0,0,0,37.48,74V66.26l155.19,44.58Z"/><path class="cls-4" d="M29.78,72.45a3.55,3.55,0,0,1-1.4,1.45L20.6,78.39a3.71,3.71,0,0,1-3.73,0l-4.58-2.65h0L9.1,73.9a3.71,3.71,0,0,1-1.86-3.22v-9a3.66,3.66,0,0,1,.54-1.92Z"/><path class="cls-4" d="M192.67,166.27l-96,55.42-96-55.42V76.58a5.31,5.31,0,0,0,1.94,1.94l13.48,7.79a5.32,5.32,0,0,0,2.7.71,5.19,5.19,0,0,0,2.55-.71l13.49-7.79a5.23,5.23,0,0,0,2-2Z"/><path class="cls-5" d="M7.24,70.68V67l5,8.72L9.1,73.9A3.71,3.71,0,0,1,7.24,70.68Z"/><path class="cls-5" d="M96.68,221.69l-96-55.42V76.58a5.31,5.31,0,0,0,1.94,1.94l13.48,7.79a5.32,5.32,0,0,0,2.7.71Z"/><path class="cls-6" d="M30.24,61.7v9a3.59,3.59,0,0,1-.46,1.77,3.55,3.55,0,0,1-1.4,1.45L20.6,78.39a3.71,3.71,0,0,1-3.73,0l-4.58-2.65h0L9.1,73.9a3.71,3.71,0,0,1-1.86-3.22v-9A3.78,3.78,0,0,1,9.1,58.47l.42-.24,4.39-2.54,3-1.71a3.76,3.76,0,0,1,3.73,0l3,1.71,4.82,2.78A3.74,3.74,0,0,1,30.24,61.7Z"/><path class="cls-5" d="M30.24,61.7v9a3.59,3.59,0,0,1-.46,1.77,3.55,3.55,0,0,1-1.4,1.45L20.6,78.39a3.71,3.71,0,0,1-3.73,0l-4.58-2.65h0L9.1,73.9a3.71,3.71,0,0,1-1.86-3.22v-9A3.78,3.78,0,0,1,9.1,58.47l.42-.24,4.39-2.54,3-1.71a3.76,3.76,0,0,1,3.73,0l3,1.71,4.82,2.78A3.74,3.74,0,0,1,30.24,61.7Z"/><path class="cls-7" d="M283.72,114.12v48.94H262.4V117.93q0-7.11-3.58-11.06t-10.13-4a15.48,15.48,0,0,0-7.68,1.85,12.92,12.92,0,0,0-5.2,5.38,18.21,18.21,0,0,0-1.93,8.48v44.43H212.56V60.59h20.72V99.76h.9a21.91,21.91,0,0,1,8.41-10.68q5.81-3.87,14.56-3.88a27.29,27.29,0,0,1,14,3.48,23.8,23.8,0,0,1,9.31,10A33.12,33.12,0,0,1,283.72,114.12Z"/><path class="cls-7" d="M315.19,57.88a12.06,12.06,0,0,0-16.29,0,10.24,10.24,0,0,0,0,15.24,11.6,11.6,0,0,0,8.16,3.15,11.43,11.43,0,0,0,8.13-3.18,10.28,10.28,0,0,0,0-15.24Z"/><rect class="cls-7" x="296.3" y="86.2" width="21.32" height="76.86"/><path class="cls-7" d="M402.05,86.21l-26.87,76.85h-24L324.29,86.21h22.52l16,55h.8l15.91-55Z"/><path class="cls-7" d="M476.49,130.09v-5.86a48.6,48.6,0,0,0-2.76-17.14,33.12,33.12,0,0,0-7.68-12.18,32,32,0,0,0-11.51-7.28,40.57,40.57,0,0,0-14.18-2.43,37.65,37.65,0,0,0-19.69,5,33.86,33.86,0,0,0-13,14A44.91,44.91,0,0,0,403.08,125q0,12.17,4.61,21a32.54,32.54,0,0,0,13.13,13.71q8.54,4.83,20.39,4.83A44.82,44.82,0,0,0,458,161.64a31,31,0,0,0,11.91-8.21A26.94,26.94,0,0,0,476,141.05l-19.72-1.31a13,13,0,0,1-3.2,4.91,13.63,13.63,0,0,1-5.05,3,20.11,20.11,0,0,1-6.51,1,18.25,18.25,0,0,1-9.26-2.25,15.25,15.25,0,0,1-6-6.41,21.43,21.43,0,0,1-2.12-9.85v0ZM426.3,109.3a16,16,0,0,1,5.83-6,16.42,16.42,0,0,1,8.58-2.22,16.14,16.14,0,0,1,8.18,2,14.6,14.6,0,0,1,5.53,5.58,16.39,16.39,0,0,1,2,8.16H424.17A16.81,16.81,0,0,1,426.3,109.3Z"/><path class="cls-7" d="M486.17,191.88V86.21h21v12.9h.95a28.76,28.76,0,0,1,4.08-6.32,21.38,21.38,0,0,1,7-5.41A23.87,23.87,0,0,1,530,85.21a29,29,0,0,1,15.51,4.37,30.63,30.63,0,0,1,11.36,13.16q4.25,8.79,4.25,22,0,12.87-4.13,21.7a30.85,30.85,0,0,1-11.2,13.36A28.85,28.85,0,0,1,530,164.31a24.38,24.38,0,0,1-10.53-2.05,21.45,21.45,0,0,1-7.08-5.18,25.52,25.52,0,0,1-4.21-6.33h-.65v41.13ZM507,124.63a34.38,34.38,0,0,0,1.9,12,17.61,17.61,0,0,0,5.51,7.93,14.93,14.93,0,0,0,17.56-.05,17.7,17.7,0,0,0,5.48-8,34.41,34.41,0,0,0,1.88-11.84,34,34,0,0,0-1.85-11.7,17.51,17.51,0,0,0-5.46-7.91,13.82,13.82,0,0,0-8.86-2.85,14,14,0,0,0-8.78,2.75,17.22,17.22,0,0,0-5.48,7.81A33.87,33.87,0,0,0,507,124.63Z"/><path class="cls-7" d="M633.6,99.44a22.75,22.75,0,0,0-7.23-8.08,32.39,32.39,0,0,0-10.46-4.65,49,49,0,0,0-12.28-1.51A43.65,43.65,0,0,0,587.44,88a28.6,28.6,0,0,0-11.38,7.91,26.89,26.89,0,0,0-5.9,12.13l19.71,1.6a11.87,11.87,0,0,1,4.5-6.33c2.27-1.68,5.32-2.53,9.16-2.53q5.46,0,8.43,2.61a9.21,9.21,0,0,1,3,7.35v.3a4.2,4.2,0,0,1-1.85,3.71,15.1,15.1,0,0,1-6,1.87q-4.1.63-10.81,1.33a69.92,69.92,0,0,0-10.88,1.9,31,31,0,0,0-9.23,4,19,19,0,0,0-6.4,7,22.38,22.38,0,0,0-2.36,10.76,22.66,22.66,0,0,0,3.33,12.68,20.76,20.76,0,0,0,9.08,7.66A31.92,31.92,0,0,0,593,164.51,30.53,30.53,0,0,0,603,163a22.28,22.28,0,0,0,7.45-4.26,21.26,21.26,0,0,0,5-6.33h.6v10.66h20.21V111.22A24.51,24.51,0,0,0,633.6,99.44Zm-18.51,36.15a13.25,13.25,0,0,1-2.05,7.26,14.68,14.68,0,0,1-5.66,5.08,17.72,17.72,0,0,1-8.3,1.87,13.5,13.5,0,0,1-8.08-2.28,7.62,7.62,0,0,1-3.18-6.63,8,8,0,0,1,1.55-5,10.54,10.54,0,0,1,4.35-3.23,26.62,26.62,0,0,1,6.56-1.75l3.9-.58c1.43-.21,2.87-.46,4.3-.75a38.77,38.77,0,0,0,3.88-.95,11.13,11.13,0,0,0,2.73-1.17Z"/><path class="cls-7" d="M690.87,162.11c-1.07.33-2.57.73-4.5,1.18a37.8,37.8,0,0,1-7.06.82,32.15,32.15,0,0,1-13.48-2.05,18.87,18.87,0,0,1-9-7.3q-3.2-5-3.15-12.51v-40H643.18v-16h10.51V67.79H675V86.2h14.46v16H675v37.22a9.56,9.56,0,0,0,.9,4.58,4.88,4.88,0,0,0,2.53,2.28,10.16,10.16,0,0,0,3.77.65,16.22,16.22,0,0,0,3-.28l2.3-.42Z"/><path class="cls-7" d="M771.85,114.12v48.94H750.54V117.93q0-7.11-3.58-11.06t-10.13-4a15.43,15.43,0,0,0-7.68,1.85,12.94,12.94,0,0,0-5.21,5.38,18.21,18.21,0,0,0-1.92,8.48v44.43H700.7V60.59h20.71V99.76h.91a21.9,21.9,0,0,1,8.4-10.68q5.81-3.87,14.56-3.88a27.32,27.32,0,0,1,14,3.48,23.86,23.86,0,0,1,9.31,10A33.24,33.24,0,0,1,771.85,114.12Z"/></svg>