<svg width="35" height="30" viewBox="0 0 35 30" fill="none" xmlns="http://www.w3.org/2000/svg">
<path d="M31.7356 29.6408H2.65723V11.4432L3.36286 11.5855C3.54072 11.6211 3.72437 11.6389 3.91421 11.6389C5.42023 11.6389 6.64205 10.4531 6.64205 9H7.82786C7.82786 10.4588 9.04926 11.6389 10.5557 11.6389C12.0617 11.6389 13.2835 10.4531 13.2835 9H14.4694C14.4694 10.4588 15.6907 11.6389 17.1972 11.6389C18.7032 11.6389 19.925 10.4531 19.925 9H21.1108C21.1108 10.4588 22.3322 11.6389 23.8387 11.6389C25.3447 11.6389 26.5665 10.4531 26.5665 9H27.7523C27.7523 10.4588 28.9737 11.6389 30.4802 11.6389C30.6638 11.6389 30.8479 11.6211 31.0257 11.5855L31.7372 11.4432L31.7356 29.6408ZM3.84209 28.455H30.5487L30.5491 12.8241C29.1259 12.8477 27.8631 12.1243 27.1574 11.0216C26.4638 12.1065 25.2361 12.8241 23.837 12.8241C22.4378 12.8241 21.21 12.1007 20.5165 11.0216C19.8228 12.1065 18.5952 12.8241 17.196 12.8241C15.7968 12.8241 14.5691 12.1007 13.8755 11.0216C13.1819 12.1065 11.9542 12.8241 10.555 12.8241C9.15586 12.8241 7.92812 12.1007 7.23456 11.0216C6.52893 12.1243 5.26572 12.8477 3.84293 12.8241L3.84209 28.455Z" fill="#3361FF"/>
<path d="M4.26982 12.8312H3.55798C1.59538 12.8312 0 11.2363 0 9.27317V3.88336H7.82731V9.27317C7.82731 11.2299 6.23245 12.8312 4.26975 12.8312H4.26982ZM1.18631 5.06918V9.27317C1.18631 10.5835 2.24761 11.6448 3.55795 11.6448H4.26938C5.57972 11.6448 6.64101 10.5835 6.64101 9.27317V5.06918H1.18631Z" fill="#3361FF"/>
<path d="M16.5577 20H17.2692C19.2318 20 20.8271 21.5948 20.8271 23.558V28.9478H12.9998V23.558C13.0003 21.6012 14.5951 20 16.5578 20H16.5577ZM19.6412 27.762V23.558C19.6412 22.2476 18.58 21.1863 17.2696 21.1863H16.5582C15.2478 21.1863 14.1865 22.2476 14.1865 23.558V27.762H19.6412Z" fill="#3361FF"/>
<path d="M17.5521 12.8312H16.8407C14.8781 12.8312 13.2827 11.2363 13.2827 9.27317V3.88336H21.11V9.27317C21.11 11.2299 19.5147 12.8312 17.552 12.8312H17.5521ZM14.4686 5.06918V9.27317C14.4686 10.5835 15.5299 11.6448 16.8403 11.6448H17.5517C18.862 11.6448 19.9233 10.5835 19.9233 9.27317V5.06918H14.4686Z" fill="#3361FF"/>
<path d="M24.1932 12.8312H23.4818C21.5192 12.8312 19.9238 11.2363 19.9238 9.27317V3.88336H27.7511V9.27317C27.7511 11.2299 26.1563 12.8312 24.1932 12.8312H24.1932ZM21.1102 5.06918V9.27317C21.1102 10.5835 22.1715 11.6448 23.4818 11.6448H24.1932C25.5036 11.6448 26.5649 10.5835 26.5649 9.27317V5.06918H21.1102Z" fill="#3361FF"/>
<path d="M30.8348 12.8312H30.1234C28.1608 12.8312 26.5654 11.2363 26.5654 9.27317V3.88336H34.3923V9.27317C34.3923 11.2299 32.7975 12.8312 30.8348 12.8312H30.8348ZM27.7513 5.06918V9.27317C27.7513 10.5835 28.8126 11.6448 30.123 11.6448L30.8348 11.6452C32.1451 11.6452 33.2064 10.5839 33.2064 9.27359V5.06959L27.7513 5.06918Z" fill="#3361FF"/>
<path d="M34.3923 5.06972H0.000488281V1.77899C0.000488281 0.800784 0.800838 0 1.77948 0H32.6135C33.5917 0 34.3925 0.80035 34.3925 1.77899L34.3923 5.06972ZM1.18641 3.8839H33.2063V1.77899C33.2063 1.45306 32.9396 1.18586 32.6132 1.18586H1.7792C1.45328 1.18586 1.18607 1.45264 1.18607 1.77899L1.18641 3.8839Z" fill="#3361FF"/>
</svg>
